<svg xmlns="http://www.w3.org/2000/svg" viewBox="0 0 86.66 20.71"><defs><style>.cls-1{fill:#95d600;}.cls-2{fill:#fff;}</style></defs><title>CTA_Black</title><g id="Layer_2" data-name="Layer 2"><g id="Layer_2-2" data-name="Layer 2"><rect width="86.66" height="20.71"/><path class="cls-1" d="M77.85,13.68a.54.54,0,0,1,.17-.4l3-3L78,7.37a.53.53,0,0,1,0-.78l.59-.6a.55.55,0,0,1,.4-.17A.53.53,0,0,1,79.4,6l3.94,3.94a.55.55,0,0,1,0,.8L79.4,14.66a.55.55,0,0,1-.79,0L78,14.08A.54.54,0,0,1,77.85,13.68Z"/><path class="cls-2" d="M14.46,5.54h4.07V6.82h-2.7v2.8h2.36v1.28H15.83v2.8h2.7v1.37H14.46Z"/><path class="cls-2" d="M19.36,5.54h1.31l2.06,5.74h0V5.54h1.37v9.53H22.84L20.75,9.34h0v5.73H19.36Z"/><path class="cls-2" d="M26.26,6.82H24.68V5.54H29.2V6.82H27.62v8.24H26.26Z"/><path class="cls-2" d="M29.81,5.54h4.07V6.82h-2.7v2.8h2.36v1.28H31.17v2.8h2.7v1.37H29.81Z"/><path class="cls-2" d="M34.76,5.54H37c1.62,0,2.41.95,2.41,2.8a2.43,2.43,0,0,1-1.18,2.38l1.47,4.35H38.21L36.94,11h-.82v4.07H34.76Zm1.37,4.26h.78c1,0,1.1-.54,1.1-1.49s-.16-1.49-1.16-1.49h-.71Z"/><path class="cls-2" d="M43,5.54h1.37V9.62H46V5.54h1.37v9.53H46V10.83H44.32v4.24H43Z"/><path class="cls-2" d="M48.66,5.54h4.07V6.82H50v2.8h2.36v1.28H50v2.8h2.7v1.37H48.66Z"/><path class="cls-2" d="M53.62,5.54h2.19c1.62,0,2.41.95,2.41,2.8A2.43,2.43,0,0,1,57,10.72l1.47,4.35H57.07L55.8,11H55v4.07H53.62ZM55,9.79h.78c1,0,1.1-.54,1.1-1.49s-.16-1.49-1.16-1.49H55Z"/><path class="cls-2" d="M59.32,5.54h4.07V6.82h-2.7v2.8H63v1.28H60.69v2.8h2.7v1.37H59.32Z"/></g></g></svg>