<svg xmlns="http://www.w3.org/2000/svg" viewBox="0 0 105.06 54.19"><defs><style>.cls-1{fill:#94d600;}.cls-2{fill:#fff;}</style></defs><title>Logo_BFTC_White</title><g id="Layer_2" data-name="Layer 2"><g id="Layer_2-2" data-name="Layer 2"><rect class="cls-1" x="9.48" width="86.09" height="25.93"/><path d="M15,4.29h3.6A4,4,0,0,1,23,8.64v.63a3.14,3.14,0,0,1-1.69,3.19C22.46,13,23,14.05,23,15.84v1c0,3-1.43,4.69-4.62,4.69H15Zm2.47,7.06h1.11c1.64,0,2.08-.85,2.08-2.42s-.56-2.32-2.18-2.32h-1Zm0,7.69h1.06c2,0,2.13-1.21,2.13-2.9s-.31-2.61-2.1-2.61H17.48Z"/><path d="M32.59,4.29h2.05L38.49,21.5H36l-.72-3.7H31.94l-.72,3.7H28.74Zm1,5h0l-1.21,6.24h2.47Z"/><path d="M44.82,6.61H42V4.29h8.17V6.61H47.28V21.5H44.82Z"/><path d="M57.68,6.61H54.82V4.29H63V6.61H60.14V21.5H57.68Z"/><path d="M68.91,4.29h2.47V19h4.88V21.5H68.91Z"/><path d="M82.69,4.29H90V6.61H85.16v5.05h4.25V14H85.16V19H90V21.5H82.69Z"/><path class="cls-2" d="M0,30.32H2.47v.78H.83v1.75H2.26v.78H.83V36.1H0Z"/><path class="cls-2" d="M4.58,31.69A1.36,1.36,0,0,1,6,30.27a1.36,1.36,0,0,1,1.39,1.41v3.05A1.36,1.36,0,0,1,6,36.15a1.36,1.36,0,0,1-1.39-1.41Zm.83,3.05a.56.56,0,1,0,1.12,0V31.69a.56.56,0,1,0-1.12,0Z"/><path class="cls-2" d="M9.71,30.32H11c1,0,1.46.58,1.46,1.7a1.47,1.47,0,0,1-.71,1.44l.89,2.64H11.8L11,33.63h-.5V36.1H9.71Zm.83,2.58H11c.58,0,.67-.32.67-.9s-.1-.9-.71-.9h-.43Z"/><path class="cls-2" d="M18.46,31.1h-1v-.78h2.74v.78h-1v5h-.83Z"/><path class="cls-2" d="M22.24,30.32h.83V32.8h1V30.32h.83V36.1h-.83V33.53h-1V36.1h-.83Z"/><path class="cls-2" d="M27.32,30.32h2.47v.78H28.15v1.7h1.43v.78H28.15v1.7h1.64v.83H27.32Z"/><path d="M52.55,19.23l0,.09c.09,0,.14,0,.15-.1a4.56,4.56,0,0,1,2.51.77q1.52.31,1.36,1-.61,2.39-7.07,8.27h-.12l-2.24-.88.07-.29q5.46-5.17,6.51-7.39h-.12c-4.07.85-8.52,4.38-14.1,10.63-4.84,5.86-7.27,9.83-8,13.42a5,5,0,0,0,.24,3l.26,0c1.37-.09,2.62-.36,5.23-2.36,5.46-4.05,15.77-12.32,18.25-14.55h.12c.46.23.31.62,1.42,1A207.15,207.15,0,0,1,40.83,45.73q-5.46,4-7.28,4.14l-.61,0q-1.32.09-4.49-1.66a4.83,4.83,0,0,1-.5-3.52q1.27-6.09,10.61-16.58Q47.07,19.61,52.55,19.23Z"/><path d="M57.87,29.64l.24,0q2.47,1,2.4,1.24a2.09,2.09,0,0,1,0,.74,9.43,9.43,0,0,1-1.27,2.72,61,61,0,0,0,5.41-3.47l.84-.53h.12l1.6,1a59.75,59.75,0,0,1-6.62,4.47,18.62,18.62,0,0,0-4.41,2.55,29.2,29.2,0,0,1-5.46,5.44,6,6,0,0,1-2.49,1.29l-.24,0q-2.8-.51-2.53-1.79l.07-.29q.95-3.18,5.74-8.45Q56.05,29.76,57.87,29.64Zm-4.87,6q-4.87,5.8-5.28,7.86A30,30,0,0,0,54,37.87l.18-.21a1.56,1.56,0,0,1-1-2Zm2.05.51.23.07a26.16,26.16,0,0,0,2.54-4A7,7,0,0,0,55.06,36.2Z"/><path d="M67.69,29.33l2,.8q-.06.22-1.58.77-2.49,1.27-2.82,3L65.18,35h.12q7-4.5,9.86-5.45,1.8.69,1.75.82t-5.59,3q-3.55,2.17-6,3.87-.11,1.11-.21,1.6l-.18.86a8.69,8.69,0,0,1-3.45,4.92,3,3,0,0,1-1.51.77q-2.5-.71-2.34-1.54l.09-.29q.7-3.37,5.14-6.81a1.19,1.19,0,0,0,.21-.3l.05-3.11Q63.67,30.7,67.69,29.33Zm-5.17,10.4a10.27,10.27,0,0,0-2.3,3.35l0,.09h.12a11.05,11.05,0,0,0,2.29-3.44Z"/><path d="M76.16,28.32a4.55,4.55,0,0,1,2.24.88q-.12.66-4.69,5.75C72.46,36.69,70,40.46,70,40.46l-1.73,3.11a9.64,9.64,0,0,1-1.86-.9l.06-.2q.4-2,9.18-13.85Zm4.95-5.08a4.23,4.23,0,0,1,1.36.42v.18c-3.24,3.31-2.45,2.46-2.84,2.6a4.74,4.74,0,0,1-2.23-.5l0-.12C81.23,22.52,80.72,23.37,81.11,23.24Z"/><path d="M85.72,27.42a6.57,6.57,0,0,1,1.9.82c-6.41,5.1-11.72,9.24-13.74,13H74a88.18,88.18,0,0,0,9.61-8.45,7.83,7.83,0,0,0,1.17-1.33h.12a11.88,11.88,0,0,0,2,.72L85,35.3h.12q3.37-3.25,9.48-8.61a7.28,7.28,0,0,1,2.07.81Q85.15,37.57,80.09,43c-3.93,7-5.64,9-7.37,10.5l-.24.12q-2.78-.64-2.66-1.48c.22-1.32,1.86-4,8.57-10.36l2.1-3.22-.14,0q-4.62,4.34-6.51,4.54-2.72-.5-2.6-1.22l.05-.29Q72.58,38,83,29.51,83,29.41,85.72,27.42Z"/><path d="M95,26.12l2,.72-2.56,4.59q2.82-3.21,4.54-4.8a6,6,0,0,1,2.25-1.18,15.52,15.52,0,0,0,2.17.71l-.08.39c-.16,1-1.37,3.66-5.91,11.11,0,0,.84,0,4.72-4.58,1.26.49-3,6-6.34,8.5a10.06,10.06,0,0,1-2.08-1.18c.15-1,1.53-3.93,6.43-12v-.09h-.12a89.83,89.83,0,0,0-11.31,14c-.47.48-.82,1-1.07,1.05q0-.15-1.93-.73c1.47-3,5.46-10,9.13-16.5Z"/><path class="cls-2" d="M54.13,19.85l0,.09c.09,0,.14,0,.15-.1a4.56,4.56,0,0,1,2.51.77q1.52.31,1.36,1Q57.5,24,51.05,29.91h-.12L48.69,29l.07-.29q5.46-5.17,6.51-7.39h-.12C51.08,22.22,46.63,25.75,41,32c-4.84,5.86-7.27,9.83-8,13.42a5,5,0,0,0,.24,3l.26,0c1.37-.09,2.62-.36,5.23-2.36C44.21,42,54.52,33.71,57,31.47h.12c.46.23.31.62,1.42,1A207.15,207.15,0,0,1,42.42,46.35q-5.46,4-7.28,4.14l-.61,0q-1.32.09-4.49-1.66a4.83,4.83,0,0,1-.5-3.52q1.27-6.09,10.61-16.58Q48.65,20.22,54.13,19.85Z"/><path class="cls-2" d="M59.46,30.26l.24,0q2.47,1,2.4,1.24a2.09,2.09,0,0,1,0,.74,9.43,9.43,0,0,1-1.27,2.72,61,61,0,0,0,5.41-3.47l.84-.53h.12l1.6,1a59.75,59.75,0,0,1-6.62,4.47A18.62,18.62,0,0,0,57.76,39a29.2,29.2,0,0,1-5.46,5.44,6,6,0,0,1-2.49,1.29l-.24,0q-2.8-.51-2.53-1.79l.07-.29q.95-3.18,5.74-8.45Q57.64,30.38,59.46,30.26Zm-4.87,6q-4.87,5.8-5.28,7.86a30,30,0,0,0,6.25-5.67l.18-.21a1.56,1.56,0,0,1-1-2Zm2.05.51.23.07a26.16,26.16,0,0,0,2.54-4A7,7,0,0,0,56.65,36.81Z"/><path class="cls-2" d="M69.28,29.95l2,.8q-.06.22-1.58.77-2.49,1.27-2.82,3l-.13,1.13h.12q7-4.5,9.86-5.45,1.8.69,1.75.82T72.9,34q-3.55,2.17-6,3.87-.11,1.11-.21,1.6l-.18.86a8.69,8.69,0,0,1-3.45,4.92,3,3,0,0,1-1.51.77q-2.5-.71-2.34-1.54l.09-.29q.7-3.37,5.14-6.81a1.19,1.19,0,0,0,.21-.3L64.69,34Q65.25,31.32,69.28,29.95Zm-5.17,10.4a10.27,10.27,0,0,0-2.3,3.35l0,.09h.12a11.05,11.05,0,0,0,2.29-3.44Z"/><path class="cls-2" d="M77.75,28.94a4.55,4.55,0,0,1,2.24.88q-.12.66-4.69,5.75c-1.26,1.75-3.72,5.52-3.72,5.52l-1.73,3.11a9.64,9.64,0,0,1-1.86-.9l.06-.2q.4-2,9.18-13.85Zm4.95-5.08a4.23,4.23,0,0,1,1.36.42v.18c-3.24,3.31-2.45,2.46-2.84,2.6a4.74,4.74,0,0,1-2.23-.5l0-.12C82.82,23.13,82.3,24,82.7,23.86Z"/><path class="cls-2" d="M87.31,28a6.57,6.57,0,0,1,1.9.82c-6.41,5.1-11.72,9.24-13.74,13h.12a88.18,88.18,0,0,0,9.61-8.45,7.83,7.83,0,0,0,1.17-1.33h.12a11.88,11.88,0,0,0,2,.72l-1.93,3.11h.12q3.37-3.25,9.48-8.61a7.28,7.28,0,0,1,2.07.81Q86.74,38.19,81.68,43.57c-3.93,7-5.64,9-7.37,10.5l-.24.12q-2.78-.64-2.66-1.48c.22-1.32,1.86-4,8.57-10.36l2.1-3.22-.14,0q-4.62,4.34-6.51,4.54-2.72-.5-2.6-1.22l.05-.29q1.3-3.55,11.67-12Q84.57,30,87.31,28Z"/><path class="cls-2" d="M96.61,26.74l2,.72L96.1,32q2.82-3.21,4.54-4.8a6,6,0,0,1,2.25-1.18,15.52,15.52,0,0,0,2.17.71l-.08.39c-.16,1-1.37,3.66-5.91,11.11,0,0,.84,0,4.72-4.58,1.26.49-3,6-6.34,8.5A10.06,10.06,0,0,1,95.36,41c.15-1,1.53-3.93,6.43-12v-.09h-.12a89.83,89.83,0,0,0-11.31,14c-.47.48-.82,1-1.07,1.05q0-.15-1.93-.73c1.47-3,5.46-10,9.13-16.5Z"/></g></g></svg>