<svg xmlns="http://www.w3.org/2000/svg" viewBox="0 0 89.78 37.16"><defs><style>.cls-1{fill:#fff;}.cls-2{fill:#96d600;}</style></defs><title>Text_Stage1_300x250</title><g id="Layer_2" data-name="Layer 2"><g id="Layer_2-2" data-name="Layer 2"><path class="cls-1" d="M5.46,8.61H4.31L3.37,3.07h0L2.42,8.61H1.27L0,.07H1.3l.61,5.42h0l1-5.42h.94l1,5.55h0L5.43.07h1.3Z"/><path class="cls-1" d="M7.54.07H8.76V8.61H7.54Z"/><path class="cls-1" d="M9.9.07h1.18l1.85,5.14h0V.07h1.22V8.61H13L11.15,3.48h0V8.61H9.9Z"/><path class="cls-1" d="M18.86.07h1l1.91,8.54H20.57l-.36-1.83H18.54l-.36,1.83H17Zm.52,2.46h0l-.6,3.09H20Z"/><path class="cls-1" d="M28.58,2.53H27.36V2.25c0-.56-.24-1-.86-1s-.83.54-.83,1.1.06.89.7,1.14l.94.37c1.08.41,1.28,1.09,1.28,2.34,0,1.44-.53,2.51-2.11,2.51a2,2,0,0,1-2.09-2V6.2h1.22v.38a.81.81,0,0,0,.86.88c.83,0,.89-.49.89-1.27s-.11-1.06-.71-1.29l-.88-.36a2,2,0,0,1-1.33-2.19A2.08,2.08,0,0,1,26.54,0a2,2,0,0,1,2,1.93Z"/><path class="cls-1" d="M29.53.07h1.22V8.61H29.53Z"/><path class="cls-1" d="M32.75,1.22H31.33V.07h4.05V1.22H34V8.61H32.75Z"/><path class="cls-1" d="M35.13,4.68h3.61V5.9H35.13Z"/><path class="cls-1" d="M39.85.07h1.81a2,2,0,0,1,2.15,2.21v4a2,2,0,0,1-2.25,2.34h-1.7Zm1.22,7.39h.56c.68,0,.95-.34.95-1.07V2.28c0-.67-.23-1.06-.95-1.06h-.56Z"/><path class="cls-1" d="M44.89,2.09a2.05,2.05,0,1,1,4.1,0V6.6a2.05,2.05,0,1,1-4.1,0ZM46.11,6.6a.83.83,0,1,0,1.66,0V2.09a.83.83,0,1,0-1.66,0Z"/><path class="cls-1" d="M55,8.61H53.85l-.94-5.54h0L52,8.61H50.82L49.55.07h1.3l.61,5.42h0l1-5.42h.94l1,5.55h0L55,.07h1.3Z"/><path class="cls-1" d="M57,.07h1.18L60,5.22h0V.07h1.22V8.61H60.12L58.25,3.48h0V8.61H57Z"/><path class="cls-1" d="M69.68,8.61H68.53l-.94-5.54h0l-.92,5.54H65.49L64.22.07h1.3l.61,5.42h0l1-5.42H68l1,5.55h0L69.66.07H71Z"/><path class="cls-1" d="M71.76.07H73V8.61H71.76Z"/><path class="cls-1" d="M75,1.22H73.56V.07h4.05V1.22H76.2V8.61H75Z"/><path class="cls-1" d="M78.15.07h1.22V3.73h1.51V.07h1.22V8.61H80.89V4.81H79.38v3.8H78.15Z"/><path class="cls-1" d="M86.85.07h1l1.91,8.54H88.56L88.2,6.78H86.53l-.36,1.83H84.95Zm.52,2.46h0l-.6,3.09H88Z"/><path class="cls-2" d="M0,11.45H2.78c2.05,0,3.06,1.21,3.06,3.55a3.08,3.08,0,0,1-1.49,3l1.87,5.52H4.38L2.77,18.38h-1v5.16H0Zm1.73,5.4h1c1.21,0,1.39-.68,1.39-1.88s-.2-1.88-1.48-1.88h-.9Z"/><path class="cls-2" d="M7.13,14.31a2.83,2.83,0,0,1,2.9-3,2.83,2.83,0,0,1,2.9,3v6.38a2.84,2.84,0,0,1-2.9,3,2.84,2.84,0,0,1-2.9-3Zm1.73,6.38A1.12,1.12,0,0,0,10,21.91a1.12,1.12,0,0,0,1.17-1.22V14.31A1.12,1.12,0,0,0,10,13.08a1.12,1.12,0,0,0-1.17,1.22Z"/><path class="cls-2" d="M20,20.84a2.79,2.79,0,0,1-2.75,2.8,2.62,2.62,0,0,1-2.85-2.85V14.14a2.7,2.7,0,0,1,2.82-2.78A2.75,2.75,0,0,1,20,14.24v.68H18.24v-.58a1.14,1.14,0,0,0-1.07-1.26c-.87,0-1.07.59-1.07,1.41v6.18c0,.7.27,1.24,1.05,1.24a1.07,1.07,0,0,0,1.09-1.22v-.59H20Z"/><path class="cls-2" d="M24.48,11.45h1.66l2.61,7.28h0V11.45h1.73V23.54H28.89l-2.65-7.27h0v7.27H24.48Z"/><path class="cls-2" d="M34,11.45h1.44l2.7,12.09H36.41l-.51-2.6H33.54L33,23.54H31.3Zm.73,3.48h0l-.85,4.38h1.73Z"/><path class="cls-2" d="M39.2,13.08h-2V11.45h5.74v1.63h-2V23.54H39.2Z"/><path class="cls-2" d="M43.75,11.45h1.73V23.54H43.75Z"/><path class="cls-2" d="M47.07,14.31a2.9,2.9,0,1,1,5.81,0v6.38a2.9,2.9,0,1,1-5.81,0Zm1.73,6.38a1.17,1.17,0,1,0,2.34,0V14.31a1.17,1.17,0,1,0-2.34,0Z"/><path class="cls-2" d="M54.34,11.45H56l2.61,7.28h0V11.45h1.73V23.54H58.75L56.1,16.28h0v7.27H54.34Z"/><path class="cls-2" d="M65.1,11.45h5.16v1.63H66.83v3.55h3v1.63h-3v3.55h3.43v1.73H65.1Z"/><path class="cls-2" d="M73,17.21l-2.26-5.75h1.83L73.87,15l1.32-3.58H77l-2.31,5.75,2.5,6.33H75.38l-1.51-4.07-1.49,4.07H70.54Z"/><path class="cls-2" d="M78,11.45h5.16v1.63H79.73v3.55h3v1.63h-3v3.55h3.43v1.73H78Z"/><path class="cls-2" d="M89.78,20.84A2.79,2.79,0,0,1,87,23.64a2.62,2.62,0,0,1-2.85-2.85V14.14A2.7,2.7,0,0,1,87,11.35a2.75,2.75,0,0,1,2.78,2.89v.68H88v-.58A1.14,1.14,0,0,0,87,13.08c-.87,0-1.07.59-1.07,1.41v6.18c0,.7.27,1.24,1.05,1.24A1.07,1.07,0,0,0,88,20.69v-.59h1.73Z"/><path class="cls-1" d="M20,27.39h1.39v9.68H20Z"/><path class="cls-1" d="M22.66,27.39H24l2.09,5.83h0V27.39H27.5v9.68H26.19l-2.12-5.82h0v5.82H22.66Z"/><path class="cls-1" d="M31.23,27.39h1.33l2.09,5.83h0V27.39h1.39v9.68H34.76l-2.12-5.82h0v5.82H31.23Z"/><path class="cls-1" d="M38.61,33l-1.9-5.59h1.47l1.12,3.85h0l1.11-3.85h1.47L40,33v4.09H38.61Z"/><path class="cls-1" d="M47,34.91a2.24,2.24,0,0,1-2.2,2.24,2.1,2.1,0,0,1-2.28-2.29V29.54a2.16,2.16,0,0,1,2.26-2.23A2.2,2.2,0,0,1,47,29.62v.54H45.62V29.7a.91.91,0,0,0-.86-1c-.69,0-.86.48-.86,1.13v4.95c0,.56.22,1,.84,1a.86.86,0,0,0,.87-1v-.48H47Z"/><rect class="cls-1" y="31.65" width="14.37" height="1.22"/><rect class="cls-1" x="74.88" y="31.65" width="14.37" height="1.22"/></g></g></svg>