<svg xmlns="http://www.w3.org/2000/svg" viewBox="0 0 61.19 89.11"><defs><style>.cls-1{fill:#96d600;}.cls-2{fill:#fff;}</style></defs><title>Text_Stage3_160</title><g id="Layer_2" data-name="Layer 2"><g id="Layer_2-2" data-name="Layer 2"><path class="cls-1" d="M9.64,5.5H7v-.6C7,3.68,6.45,2.66,5.1,2.66S3.3,3.83,3.3,5.06C3.3,6.5,3.43,7,4.81,7.54l2,.81c2.35.89,2.79,2.38,2.79,5.09,0,3.13-1.15,5.45-4.59,5.45A4.39,4.39,0,0,1,.5,14.48v-1H3.16v.83A1.75,1.75,0,0,0,5,16.23c1.8,0,1.93-1.07,1.93-2.77,0-2-.23-2.3-1.54-2.82l-1.9-.78C1.23,8.92.63,7.41.63,5.09.63,2.27,2.15,0,5.2,0A4.35,4.35,0,0,1,9.64,4.2Z"/><path class="cls-1" d="M20.24,14.56a4.31,4.31,0,1,1-8.61,0V.16h2.66V14.3c0,1.3.71,1.93,1.64,1.93s1.64-.63,1.64-1.93V.16h2.66Z"/><path class="cls-1" d="M22.75.16h3.89c3.44,0,4.72,2.27,4.72,4.7v.68A3.39,3.39,0,0,1,29.53,9c1.25.6,1.83,1.72,1.83,3.65v1c0,3.24-1.54,5.06-5,5.06H22.75Zm2.66,7.62h1.2c1.78,0,2.24-.91,2.24-2.61s-.6-2.5-2.35-2.5h-1.1Zm0,8.3h1.15c2.14,0,2.3-1.3,2.3-3.13s-.34-2.82-2.27-2.82H25.41Z"/><path class="cls-1" d="M33.87.16h2.56L39.84,10h.05L43.29.16h2.58V18.73H43.21V7.44h-.05l-2.64,8H39.19l-2.61-8h-.05v11.3H33.87Z"/><path class="cls-1" d="M48.46.16h2.66V18.73H48.46Z"/><path class="cls-1" d="M55.46,2.66H52.38V.16h8.82v2.5H58.12V18.73H55.46Z"/><path class="cls-1" d="M5.28,37.26.1,22.06h4l3,10.47H7.2l3-10.47h4L9,37.26V48.39H5.28Z"/><path class="cls-1" d="M15.9,28.27a6.18,6.18,0,0,1,6.33-6.44,6.18,6.18,0,0,1,6.33,6.44V42.18a6.18,6.18,0,0,1-6.33,6.44,6.18,6.18,0,0,1-6.33-6.44Zm3.77,13.91a2.44,2.44,0,0,0,2.55,2.66,2.44,2.44,0,0,0,2.55-2.66V28.27a2.44,2.44,0,0,0-2.55-2.66,2.44,2.44,0,0,0-2.55,2.66Z"/><path class="cls-1" d="M44.1,42.48a6.1,6.1,0,1,1-12.21,0V22.06h3.77v20c0,1.85,1,2.74,2.33,2.74s2.33-.89,2.33-2.74v-20H44.1Z"/><path class="cls-1" d="M47.66,22.06h6.07c4.48,0,6.66,2.63,6.66,7.73,0,3-.85,5.25-3.25,6.58l4.07,12h-4L53.69,37.15H51.43V48.39H47.66Zm3.77,11.76h2.15c2.63,0,3-1.48,3-4.11s-.44-4.11-3.22-4.11h-2Z"/><path class="cls-1" d="M.33,51.6H3.44l4.16,12h.06l4.13-12h3.14V74.2H11.69V60.45h-.06L8.42,70.17H6.8L3.63,60.45H3.56V74.2H.33Z"/><path class="cls-1" d="M28.47,69.12a5.24,5.24,0,1,1-10.48,0V51.6h3.24V68.81c0,1.59.86,2.35,2,2.35s2-.76,2-2.35V51.6h3.24Z"/><path class="cls-1" d="M42,58.1H38.77v-.73c0-1.49-.63-2.73-2.29-2.73s-2.19,1.43-2.19,2.92c0,1.75.16,2.35,1.84,3l2.48,1c2.86,1.08,3.4,2.89,3.4,6.19,0,3.81-1.4,6.64-5.59,6.64A5.34,5.34,0,0,1,30.89,69V67.82h3.24v1a2.14,2.14,0,0,0,2.29,2.32c2.19,0,2.35-1.3,2.35-3.37,0-2.41-.29-2.8-1.87-3.43l-2.32-1c-2.79-1.14-3.52-3-3.52-5.81,0-3.43,1.84-6.19,5.56-6.19A5.3,5.3,0,0,1,42,56.52Z"/><path class="cls-1" d="M44.52,51.6h3.24V74.2H44.52Z"/><path class="cls-1" d="M61.19,69.15a5.23,5.23,0,0,1-5.14,5.24c-2.48,0-5.33-1.21-5.33-5.34V56.61A5.05,5.05,0,0,1,56,51.4a5.14,5.14,0,0,1,5.21,5.4v1.27H58V57a2.13,2.13,0,0,0-2-2.35c-1.62,0-2,1.11-2,2.63V68.84c0,1.3.51,2.32,2,2.32a2,2,0,0,0,2-2.29V67.76h3.24Z"/><path class="cls-2" d="M2,78.78H0V77.19H5.61v1.59h-2V89H2Z"/><path class="cls-2" d="M6.06,80A2.77,2.77,0,0,1,8.9,77.09,2.77,2.77,0,0,1,11.74,80v6.24A2.77,2.77,0,0,1,8.9,89.11a2.77,2.77,0,0,1-2.84-2.89Zm1.69,6.24A1.09,1.09,0,0,0,8.9,87.41,1.09,1.09,0,0,0,10,86.22V80A1.09,1.09,0,0,0,8.9,78.78,1.09,1.09,0,0,0,7.75,80Z"/><path class="cls-2" d="M21.7,86.37A2.73,2.73,0,0,1,19,89.11a2.56,2.56,0,0,1-2.79-2.79V79.81A2.64,2.64,0,0,1,19,77.09a2.69,2.69,0,0,1,2.72,2.82v.66H20V80a1.11,1.11,0,0,0-1-1.23c-.85,0-1,.58-1,1.38v6c0,.68.27,1.21,1,1.21A1,1,0,0,0,20,86.22v-.58H21.7Z"/><path class="cls-2" d="M23,80a2.84,2.84,0,1,1,5.68,0v6.24a2.84,2.84,0,1,1-5.68,0Zm1.69,6.24a1.15,1.15,0,1,0,2.29,0V80a1.15,1.15,0,1,0-2.29,0Z"/><path class="cls-2" d="M30.16,77.19h1.63L34,83.45h0l2.16-6.26h1.64V89H36.1V81.82h0L34.39,86.9h-.85l-1.66-5.08h0V89H30.16Z"/><path class="cls-2" d="M39.39,77.19h5v1.59H41.09v3.47H44v1.59H41.09v3.47h3.35V89h-5Z"/><path class="cls-2" d="M54.1,86.35a2.74,2.74,0,1,1-5.48,0V77.19h1.69v9c0,.83.45,1.23,1,1.23s1-.4,1-1.23v-9H54.1Z"/><path class="cls-2" d="M55.7,77.19h2.54a2.75,2.75,0,0,1,2.19.83,3.63,3.63,0,0,1,.76,2.77,4.25,4.25,0,0,1-.48,2.37,2.61,2.61,0,0,1-2.46,1.23h-.86V89H55.7Zm1.69,5.61h.81c1.38,0,1.39-.81,1.39-2s0-2-1.33-2h-.88Z"/></g></g></svg>