<svg xmlns="http://www.w3.org/2000/svg" viewBox="0 0 114.5 38.56"><defs><style>.cls-1{fill:#96d600;}.cls-2{fill:#fff;}</style></defs><title>Text_Stage_3</title><g id="Layer_2" data-name="Layer 2"><g id="Layer_2-2" data-name="Layer 2"><path class="cls-1" d="M6.33,3.82H4.49V3.4c0-.85-.36-1.56-1.3-1.56s-1.25.81-1.25,1.67S2,4.85,3,5.23l1.41.56C6,6.41,6.33,7.44,6.33,9.32c0,2.17-.8,3.78-3.18,3.78A3,3,0,0,1,0,10V9.36H1.85v.58a1.22,1.22,0,0,0,1.3,1.32c1.25,0,1.34-.74,1.34-1.92,0-1.37-.16-1.59-1.07-2L2.1,6.84c-1.59-.65-2-1.7-2-3.31,0-2,1-3.53,3.17-3.53A3,3,0,0,1,6.33,2.91Z"/><path class="cls-1" d="M13.69,10.1a3,3,0,1,1-6,0V.11H9.56V9.92c0,.91.49,1.34,1.14,1.34s1.14-.43,1.14-1.34V.11h1.85Z"/><path class="cls-1" d="M15.43.11h2.7A3,3,0,0,1,21.4,3.37v.47a2.35,2.35,0,0,1-1.27,2.39A2.45,2.45,0,0,1,21.4,8.76v.72c0,2.24-1.07,3.51-3.46,3.51H15.43Zm1.85,5.28h.83c1.23,0,1.56-.63,1.56-1.81S19.24,1.85,18,1.85h-.76Zm0,5.75h.8c1.48,0,1.59-.9,1.59-2.17s-.24-2-1.57-2h-.81Z"/><path class="cls-1" d="M23.14.11h1.77l2.37,6.82h0L29.67.11h1.79V13H29.62V5.16h0L27.75,10.7h-.92L25,5.16h0V13H23.14Z"/><path class="cls-1" d="M33.26.11h1.85V13H33.26Z"/><path class="cls-1" d="M38.11,1.85H36V.11h6.12V1.85H40V13H38.11Z"/><path class="cls-1" d="M48,7.55,45.46.11h2L48.9,5.23h0L50.42.11h2L49.84,7.55V13H48Z"/><path class="cls-1" d="M53.2,3.15a3.09,3.09,0,1,1,6.19,0V10a3.09,3.09,0,1,1-6.19,0ZM55,10a1.25,1.25,0,1,0,2.5,0V3.15a1.25,1.25,0,1,0-2.5,0Z"/><path class="cls-1" d="M67,10.1a3,3,0,1,1-6,0V.11h1.85V9.92c0,.91.49,1.34,1.14,1.34s1.14-.43,1.14-1.34V.11H67Z"/><path class="cls-1" d="M68.73.11h3C73.89.11,75,1.39,75,3.89a3.28,3.28,0,0,1-1.59,3.22l2,5.88h-2l-1.72-5.5h-1.1V13H68.73Zm1.85,5.75h1c1.28,0,1.48-.72,1.48-2s-.22-2-1.57-2h-1Z"/><path class="cls-1" d="M79.81.11h1.77L84,6.93h0L86.34.11h1.79V13H86.29V5.16h0L84.43,10.7H83.5L81.69,5.16h0V13H79.81Z"/><path class="cls-1" d="M95.85,10.1a3,3,0,1,1-6,0V.11h1.85V9.92c0,.91.49,1.34,1.14,1.34S94,10.82,94,9.92V.11h1.85Z"/><path class="cls-1" d="M103.56,3.82h-1.85V3.4c0-.85-.36-1.56-1.3-1.56s-1.25.81-1.25,1.67.09,1.34,1,1.72l1.41.56c1.63.62,1.94,1.65,1.94,3.53,0,2.17-.8,3.78-3.18,3.78A3,3,0,0,1,97.23,10V9.36h1.85v.58a1.22,1.22,0,0,0,1.3,1.32c1.25,0,1.34-.74,1.34-1.92,0-1.37-.16-1.59-1.07-2l-1.32-.54c-1.59-.65-2-1.7-2-3.31,0-2,1-3.53,3.17-3.53a3,3,0,0,1,3.08,2.91Z"/><path class="cls-1" d="M105,.11h1.85V13H105Z"/><path class="cls-1" d="M114.5,10.12a3,3,0,0,1-2.93,3,2.79,2.79,0,0,1-3-3V3a2.88,2.88,0,0,1,3-3,2.93,2.93,0,0,1,3,3.08V3.8h-1.85V3.18a1.21,1.21,0,0,0-1.14-1.34c-.92,0-1.14.63-1.14,1.5V9.94c0,.74.29,1.32,1.12,1.32a1.14,1.14,0,0,0,1.16-1.3V9.32h1.85Z"/><path class="cls-2" d="M4.37,19.37H.73v-3H11.16v3H7.52v19H4.37Z"/><path class="cls-2" d="M12,21.59a5.15,5.15,0,0,1,5.28-5.37,5.15,5.15,0,0,1,5.28,5.37v11.6a5.15,5.15,0,0,1-5.28,5.37A5.15,5.15,0,0,1,12,33.19Zm3.15,11.6a2,2,0,0,0,2.13,2.22,2,2,0,0,0,2.13-2.22V21.59a2,2,0,0,0-2.13-2.22,2,2,0,0,0-2.13,2.22Z"/><path class="cls-2" d="M41.07,33.47a5.08,5.08,0,0,1-5,5.09c-2.41,0-5.18-1.17-5.18-5.18V21.28A4.91,4.91,0,0,1,36,16.22a5,5,0,0,1,5.06,5.25V22.7H37.93v-1A2.07,2.07,0,0,0,36,19.37c-1.57,0-1.94,1.08-1.94,2.56V33.16c0,1.27.49,2.25,1.91,2.25a1.94,1.94,0,0,0,2-2.22V32.11h3.15Z"/><path class="cls-2" d="M43.46,21.59a5.28,5.28,0,1,1,10.55,0v11.6a5.28,5.28,0,1,1-10.55,0Zm3.15,11.6a2.13,2.13,0,1,0,4.26,0V21.59a2.13,2.13,0,1,0-4.26,0Z"/><path class="cls-2" d="M56.8,16.41h3l4,11.64h.06l4-11.64H71v22H67.84V25h-.06l-3.12,9.44H63.09L60,25h-.06V38.38H56.8Z"/><path class="cls-2" d="M74,16.41h9.38v3H77.11v6.45h5.43v3H77.11v6.45h6.23v3.15H74Z"/><path class="cls-2" d="M101.32,33.44a5.09,5.09,0,1,1-10.18,0v-17h3.15V33.13c0,1.54.83,2.28,1.94,2.28s1.94-.74,1.94-2.28V16.41h3.15Z"/><path class="cls-2" d="M104.29,16.41H109a5.11,5.11,0,0,1,4.07,1.54c1.08,1.14,1.42,2.53,1.42,5.15a7.9,7.9,0,0,1-.89,4.41A4.85,4.85,0,0,1,109,29.8h-1.61v8.58h-3.15Zm3.15,10.43h1.51c2.56,0,2.59-1.51,2.59-3.7s0-3.77-2.47-3.77h-1.64Z"/></g></g></svg>