<svg xmlns="http://www.w3.org/2000/svg" viewBox="0 0 60.12 131.62"><defs><style>.cls-1{fill:#fff;}.cls-2{fill:#96d600;}</style></defs><title>Text_Stage2_160</title><g id="Layer_2" data-name="Layer 2"><g id="Layer_2-2" data-name="Layer 2"><path class="cls-1" d="M20.69,0h1l1.91,8.54H22.39L22,6.7H20.36L20,8.54H18.78Zm.52,2.46h0l-.6,3.09H21.8Z"/><path class="cls-1" d="M24.17,0h1.18l1.85,5.14h0V0h1.22V8.54H27.29L25.41,3.41h0V8.54H24.17Z"/><path class="cls-1" d="M29.54,0h1.81A2,2,0,0,1,33.5,2.21v4a2,2,0,0,1-2.25,2.34h-1.7Zm1.22,7.39h.56c.68,0,.95-.34.95-1.07V2.21c0-.67-.23-1.05-.95-1.05h-.56Z"/><path class="cls-1" d="M38.24,0h1l1.91,8.54H39.95L39.59,6.7H37.92l-.36,1.83H36.34Zm.52,2.46h0l-.6,3.09h1.22Z"/><rect class="cls-1" y="40.22" width="15.15" height="1.15"/><rect class="cls-1" x="44.79" y="40.22" width="15.15" height="1.15"/><path class="cls-1" d="M26.78,45.07H25.63l-.94-5.54h0l-.92,5.54H22.59l-1.27-8.54h1.3l.61,5.42h0l1-5.42h.94l1,5.55h0l.59-5.55h1.3Z"/><path class="cls-1" d="M28.86,36.53h1.22v8.54H28.86Z"/><path class="cls-1" d="M32.07,37.68H30.66V36.53h4.05v1.15H33.3v7.39H32.07Z"/><path class="cls-1" d="M35.25,36.53h1.22v3.66H38V36.53h1.22v8.54H38v-3.8H36.48v3.8H35.25Z"/><path class="cls-2" d="M.42,48.84H9.62c8.15,0,11.18,5.37,11.18,11.12v1.61c0,4.69-1.54,6.42-4.33,8.15,3,1.42,4.33,4.07,4.33,8.65v2.47c0,7.66-3.65,12-11.8,12H.42Zm6.3,18H9.56c4.2,0,5.32-2.16,5.32-6.18s-1.42-5.93-5.56-5.93H6.72Zm0,19.65H9.44c5.07,0,5.44-3.09,5.44-7.41s-.8-6.68-5.38-6.68H6.72Z"/><path class="cls-2" d="M26.94,48.84h6.3v44h-6.3Z"/><path class="cls-2" d="M39,59.21A10.32,10.32,0,0,1,49.56,48.46,10.32,10.32,0,0,1,60.12,59.21v2.22h-6.3V59.21a4.27,4.27,0,1,0-8.53,0V82.45a4.27,4.27,0,1,0,8.53,0V74.17h-5V68.61H60.12V82.45A10.32,10.32,0,0,1,49.56,93.2,10.32,10.32,0,0,1,39,82.45Z"/><path class="cls-2" d="M.42,96.46H3.54v9.95H3.6l4.56-9.95h3.12L7,105.18l5,13.07H8.77l-3.55-9.67-1.68,3.15v6.52H.42Z"/><path class="cls-2" d="M13.28,115.12H16.4v3.12H13.28Z"/><path class="cls-2" d="M19.15,96.46h5c3.7,0,5.51,2.17,5.51,6.4,0,2.51-.7,4.34-2.69,5.45l3.37,9.95H27.05l-2.91-9.3H22.28v9.3H19.15Zm3.12,9.73h1.78c2.17,0,2.51-1.22,2.51-3.4s-.37-3.4-2.66-3.4H22.28Z"/><path class="cls-2" d="M32,115.12h3.12v3.12H32Z"/><path class="cls-2" d="M38,96.46h3.12v21.79H38Z"/><path class="cls-2" d="M44,115.12h3.12v3.12H44Z"/><path class="cls-2" d="M51.89,99.4H48.27V96.46H58.62V99.4H55v18.85H51.89Z"/><path class="cls-2" d="M57,115.12h3.12v3.12H57Z"/><path class="cls-1" d="M11,123.09H12.2v8.54H11Z"/><path class="cls-1" d="M13.34,123.09h1.18l1.85,5.14h0v-5.14h1.22v8.54H16.46l-1.87-5.13h0v5.13H13.34Z"/><rect class="cls-1" x="0.42" y="126.78" width="7.74" height="1.15"/><rect class="cls-1" x="52.38" y="126.78" width="7.74" height="1.15"/><path class="cls-1" d="M22.06,123.09h1L25,131.62H23.77l-.36-1.83H21.74l-.36,1.83H20.16Zm.52,2.46h0l-.6,3.09h1.22Z"/><path class="cls-1" d="M25.74,124.24H24.32v-1.15h4.05v1.15H27v7.39H25.74Z"/><path class="cls-1" d="M28.92,123.09h1.22v7.32h2.42v1.22H28.92Z"/><path class="cls-2" d="M21.57,14.61H20.34v-.28c0-.56-.24-1-.86-1s-.83.54-.83,1.1.06.89.7,1.14l.94.37c1.08.41,1.28,1.09,1.28,2.34,0,1.44-.53,2.51-2.11,2.51a2,2,0,0,1-2.09-2v-.46h1.22v.38a.81.81,0,0,0,.86.88c.83,0,.89-.49.89-1.27s-.11-1.06-.71-1.29l-.88-.36a2,2,0,0,1-1.33-2.19,2.08,2.08,0,0,1,2.1-2.34,2,2,0,0,1,2,1.93Z"/><path class="cls-2" d="M23.29,13.3H21.87V12.15h4.05V13.3H24.51v7.39H23.29Z"/><path class="cls-2" d="M30.42,18.77a2,2,0,1,1-4,0V12.15h1.22v6.5c0,.6.32.89.76.89s.76-.29.76-.89v-6.5h1.22Z"/><path class="cls-2" d="M31.58,12.15h1.81a2,2,0,0,1,2.15,2.21v4a2,2,0,0,1-2.25,2.34h-1.7Zm1.22,7.39h.56c.68,0,.95-.34.95-1.07V14.36c0-.67-.23-1.06-.95-1.06H32.8Z"/><path class="cls-2" d="M36.73,12.15h1.22v8.54H36.73Z"/><path class="cls-2" d="M39.06,14.17a2.05,2.05,0,1,1,4.1,0v4.51a2.05,2.05,0,1,1-4.1,0Zm1.22,4.51a.83.83,0,1,0,1.66,0V14.17a.83.83,0,1,0-1.66,0Z"/><path class="cls-2" d="M8.12,24.67h3.65v1.15H9.35v2.51h2.11v1.15H9.35V32h2.42V33.2H8.12Z"/><path class="cls-2" d="M13.69,28.73l-1.6-4.07h1.3l.92,2.53.94-2.53h1.3l-1.63,4.07,1.76,4.47h-1.3l-1.07-2.88L13.26,33.2H12Z"/><path class="cls-2" d="M17.23,24.67h1.83a2,2,0,0,1,1.58.6,2.62,2.62,0,0,1,.55,2A3.07,3.07,0,0,1,20.85,29a1.89,1.89,0,0,1-1.77.89h-.62V33.2H17.23Zm1.22,4.05H19c1,0,1-.59,1-1.44s0-1.46-1-1.46h-.64Z"/><path class="cls-2" d="M22.11,24.67h3.65v1.15H23.34v2.51h2.11v1.15H23.34V32h2.42V33.2H22.11Z"/><path class="cls-2" d="M26.55,24.67h2c1.45,0,2.16.85,2.16,2.51a2.18,2.18,0,0,1-1.06,2.13l1.32,3.9h-1.3l-1.14-3.65h-.73V33.2H26.55Zm1.22,3.81h.7c.85,0,1-.48,1-1.33s-.14-1.33-1-1.33h-.64Z"/><path class="cls-2" d="M31.7,24.67h1.22V33.2H31.7Z"/><path class="cls-2" d="M34.11,24.67h3.65v1.15H35.34v2.51h2.11v1.15H35.34V32h2.42V33.2H34.11Z"/><path class="cls-2" d="M38.51,24.67h1.18l1.85,5.15h0V24.67h1.22V33.2H41.63l-1.87-5.13h0V33.2H38.51Z"/><path class="cls-2" d="M47.77,31.3a2,2,0,0,1-1.94,2,1.85,1.85,0,0,1-2-2v-4.7a1.91,1.91,0,0,1,2-2,1.94,1.94,0,0,1,2,2v.48H46.55V26.7a.8.8,0,0,0-.76-.89c-.61,0-.76.42-.76,1v4.37c0,.49.19.88.74.88a.76.76,0,0,0,.77-.86v-.42h1.22Z"/><path class="cls-2" d="M48.77,24.67h3.65v1.15H50v2.51H52.1v1.15H50V32h2.42V33.2H48.77Z"/></g></g></svg>