<svg xmlns="http://www.w3.org/2000/svg" viewBox="0 0 88.96 39.67"><defs><style>.cls-1{fill:#96d600;}.cls-2{fill:#fff;}</style></defs><title>Text_Stage2_728</title><g id="Layer_2" data-name="Layer 2"><g id="Layer_2-2" data-name="Layer 2"><path class="cls-1" d="M0,8.46H4.14c3.67,0,5,2.42,5,5v.72a3.62,3.62,0,0,1-1.95,3.67c1.33.64,1.95,1.83,1.95,3.89v1.11c0,3.45-1.64,5.4-5.31,5.4H0Zm2.84,8.12H4.12c1.89,0,2.39-1,2.39-2.78S5.87,11.13,4,11.13H2.84Zm0,8.84H4.06c2.28,0,2.45-1.39,2.45-3.34s-.36-3-2.42-3H2.84Z"/><path class="cls-1" d="M11.94,8.46h2.84v19.8H11.94Z"/><path class="cls-1" d="M17.36,13.13a4.64,4.64,0,0,1,4.76-4.84,4.64,4.64,0,0,1,4.76,4.84v1H24v-1a1.92,1.92,0,1,0-3.84,0V23.59a1.92,1.92,0,1,0,3.84,0V19.86H21.79v-2.5h5.09v6.23a4.64,4.64,0,0,1-4.76,4.84,4.64,4.64,0,0,1-4.76-4.84Z"/><path class="cls-1" d="M34.56,8.46H37.4v9h.06l4.14-9h2.84l-3.87,7.93,4.59,11.87h-3l-3.23-8.79L37.4,22.34v5.92H34.56Z"/><path class="cls-1" d="M46.25,25.42h2.84v2.84H46.25Z"/><path class="cls-1" d="M51.59,8.46h4.56c3.36,0,5,2,5,5.81,0,2.28-.64,3.95-2.45,5l3.06,9h-3l-2.64-8.46h-1.7v8.46H51.59Zm2.84,8.84H56c2,0,2.28-1.11,2.28-3.09S58,11.13,55.9,11.13H54.42Z"/><path class="cls-1" d="M63.27,25.42h2.84v2.84H63.27Z"/><path class="cls-1" d="M68.7,8.46h2.84v19.8H68.7Z"/><path class="cls-1" d="M74.13,25.42H77v2.84H74.13Z"/><path class="cls-1" d="M81.33,11.13H78V8.46h9.4v2.67H84.17V28.26H81.33Z"/><path class="cls-1" d="M86,25.42h2.84v2.84H86Z"/><path class="cls-2" d="M29.46,32.6h1v7.07h-1Z"/><path class="cls-2" d="M31.42,32.6h1l1.53,4.26h0V32.6h1v7.07H34l-1.55-4.25h0v4.25h-1Z"/><path class="cls-2" d="M38.84,32.6h.84l1.58,7.07h-1L40,38.15H38.57l-.3,1.52h-1Zm.43,2h0l-.5,2.56h1Z"/><path class="cls-2" d="M41.88,33.55H40.71v-1h3.36v1H42.9v6.12h-1Z"/><path class="cls-2" d="M44.52,32.6h1v6.06h2v1h-3Z"/><rect class="cls-2" x="11.49" y="24.14" width="1.01" height="23.99" transform="translate(48.13 24.14) rotate(90)"/><rect class="cls-2" x="76.46" y="24.14" width="1.01" height="23.99" transform="translate(113.1 -40.83) rotate(90)"/><path class="cls-2" d="M1.42.05h.76L3.61,6.43H2.69L2.43,5.06H1.18L.91,6.43H0Zm.38,1.83h0L1.34,4.2h.91Z"/><path class="cls-2" d="M4,.05H4.9L6.28,3.89h0V.05h.91V6.43H6.35L5,2.6h0V6.43H4Z"/><path class="cls-2" d="M8,.05H9.39A1.48,1.48,0,0,1,11,1.7v3A1.53,1.53,0,0,1,9.31,6.43H8Zm.91,5.52h.42c.51,0,.71-.25.71-.8V1.7c0-.5-.17-.79-.71-.79H8.95Z"/><path class="cls-2" d="M14.53.05h.76l1.42,6.37H15.8l-.27-1.37H14.29L14,6.43h-.91Zm.38,1.83h0L14.45,4.2h.91Z"/><path class="cls-2" d="M21.78,1.89h-.91V1.68c0-.42-.18-.77-.64-.77s-.62.4-.62.82,0,.66.52.85l.7.28c.81.3,1,.82,1,1.75s-.39,1.87-1.58,1.87A1.51,1.51,0,0,1,18.65,5V4.63h.91v.29a.6.6,0,0,0,.64.65c.62,0,.66-.37.66-.95s-.08-.79-.53-1l-.65-.27a1.5,1.5,0,0,1-1-1.64A1.55,1.55,0,0,1,20.26,0a1.49,1.49,0,0,1,1.52,1.44Z"/><path class="cls-2" d="M23.07.91H22V.05h3V.91H24V6.43h-.91Z"/><path class="cls-2" d="M28.4,5a1.48,1.48,0,1,1-3,0V.05h.91V4.91c0,.45.24.66.56.66s.56-.22.56-.66V.05h.91Z"/><path class="cls-2" d="M29.26.05h1.35a1.48,1.48,0,0,1,1.6,1.65v3a1.53,1.53,0,0,1-1.68,1.75H29.26Zm.91,5.52h.42c.51,0,.71-.25.71-.8V1.7c0-.5-.17-.79-.71-.79h-.42Z"/><path class="cls-2" d="M33.1.05H34V6.43H33.1Z"/><path class="cls-2" d="M34.85,1.56a1.53,1.53,0,1,1,3.06,0V4.92a1.53,1.53,0,1,1-3.06,0Zm.91,3.37a.62.62,0,1,0,1.24,0V1.56a.62.62,0,1,0-1.24,0Z"/><path class="cls-2" d="M40.38.05h2.72V.91H41.3V2.78h1.58v.86H41.3V5.52h1.81v.91H40.38Z"/><path class="cls-2" d="M44.54,3.09l-1.19-3h1L45,1.94,45.7.05h1l-1.22,3,1.32,3.34h-1L45,4.28l-.79,2.15h-1Z"/><path class="cls-2" d="M47.18.05h1.37A1.48,1.48,0,0,1,49.73.5,2,2,0,0,1,50.15,2a2.29,2.29,0,0,1-.26,1.28,1.41,1.41,0,0,1-1.33.66H48.1V6.43h-.91Zm.91,3h.44c.74,0,.75-.44.75-1.07s0-1.09-.72-1.09H48.1Z"/><path class="cls-2" d="M50.83.05h2.72V.91H51.74V2.78h1.58v.86H51.74V5.52h1.81v.91H50.83Z"/><path class="cls-2" d="M54.14.05h1.47c1.08,0,1.61.64,1.61,1.87a1.63,1.63,0,0,1-.79,1.59l1,2.91h-1L55.6,3.71h-.55V6.43h-.91Zm.91,2.85h.52c.64,0,.73-.36.73-1s-.11-1-.78-1h-.47Z"/><path class="cls-2" d="M58,.05h.91V6.43H58Z"/><path class="cls-2" d="M59.79.05h2.72V.91H60.7V2.78h1.58v.86H60.7V5.52h1.81v.91H59.79Z"/><path class="cls-2" d="M63.07.05h.88l1.38,3.84h0V.05h.91V6.43h-.86L64,2.6h0V6.43h-.91Z"/><path class="cls-2" d="M70,5a1.47,1.47,0,0,1-1.45,1.48A1.38,1.38,0,0,1,67,5V1.47A1.42,1.42,0,0,1,68.51,0,1.45,1.45,0,0,1,70,1.52v.36h-.91v-.3A.6.6,0,0,0,68.5.91c-.46,0-.56.31-.56.74V4.92c0,.37.14.65.56.65a.56.56,0,0,0,.57-.64V4.61H70Z"/><path class="cls-2" d="M70.72.05h2.72V.91H71.64V2.78h1.58v.86H71.64V5.52h1.81v.91H70.72Z"/><path class="cls-2" d="M79.49,6.43h-.86l-.7-4.14h0l-.69,4.14h-.86L75.42.05h1l.46,4h0l.72-4h.7L79,4.2h0L79.47.05h1Z"/><path class="cls-2" d="M81,.05H82V6.43H81Z"/><path class="cls-2" d="M83.45.91H82.39V.05h3V.91H84.36V6.43h-.91Z"/><path class="cls-2" d="M85.82.05h.91V2.78h1.13V.05h.91V6.43h-.91V3.59H86.73V6.43h-.91Z"/></g></g></svg>