<svg xmlns="http://www.w3.org/2000/svg" viewBox="0 0 61.5 133.87"><defs><style>.cls-1{fill:#96d600;}.cls-2{fill:#fff;}</style></defs><title>Text_Stage1_160</title><g id="Layer_2" data-name="Layer 2"><g id="Layer_2-2" data-name="Layer 2"><path class="cls-1" d="M5.57,8.61H4.42L3.49,3.07h0L2.54,8.61H1.39L.12.07h1.3L2,5.49H2L3,.07h.94l1,5.55H5L5.55.07h1.3Z"/><path class="cls-1" d="M7.65.07H8.88V8.61H7.65Z"/><path class="cls-1" d="M10,.07h1.18L13,5.22h0V.07h1.22V8.61H13.14L11.26,3.48h0V8.61H10Z"/><path class="cls-1" d="M19,.07h1l1.91,8.54H20.68l-.36-1.83H18.66L18.3,8.61H17.07Zm.52,2.46h0l-.6,3.09H20.1Z"/><path class="cls-1" d="M28.7,2.53H27.47V2.25c0-.56-.24-1-.86-1s-.83.54-.83,1.1.06.89.7,1.14l.94.37c1.08.41,1.28,1.09,1.28,2.34,0,1.44-.53,2.51-2.11,2.51a2,2,0,0,1-2.09-2V6.2h1.22v.38a.81.81,0,0,0,.86.88c.83,0,.89-.49.89-1.27s-.11-1.06-.71-1.29l-.88-.36a2,2,0,0,1-1.33-2.19A2.08,2.08,0,0,1,26.66,0a2,2,0,0,1,2,1.93Z"/><path class="cls-1" d="M29.65.07h1.22V8.61H29.65Z"/><path class="cls-1" d="M32.86,1.22H31.45V.07H35.5V1.22H34.09V8.61H32.86Z"/><path class="cls-1" d="M35.25,4.68h3.61V5.9H35.25Z"/><path class="cls-1" d="M40,.07h1.81a2,2,0,0,1,2.15,2.21v4a2,2,0,0,1-2.25,2.34H40Zm1.22,7.39h.56c.68,0,.95-.34.95-1.07V2.28c0-.67-.23-1.06-.95-1.06h-.56Z"/><path class="cls-1" d="M45,2.09a2.05,2.05,0,1,1,4.1,0V6.6a2.05,2.05,0,1,1-4.1,0ZM46.23,6.6a.83.83,0,1,0,1.66,0V2.09a.83.83,0,1,0-1.66,0Z"/><path class="cls-1" d="M55.12,8.61H54L53,3.07h0l-.92,5.54H50.94L49.66.07H51l.61,5.42h0l1-5.42h.94l1,5.55h0L55.1.07h1.3Z"/><path class="cls-1" d="M57.12.07h1.18l1.85,5.14h0V.07h1.22V8.61H60.23L58.36,3.48h0V8.61H57.12Z"/><path class="cls-2" d="M23.43,20.76H22.28l-.94-5.54h0l-.92,5.54H19.24L18,12.22h1.3l.61,5.42h0l1-5.42h.94l1,5.55h0l.59-5.55h1.3Z"/><path class="cls-2" d="M25.51,12.22h1.22v8.54H25.51Z"/><path class="cls-2" d="M28.72,13.37H27.31V12.22h4.05v1.15H29.95v7.39H28.72Z"/><path class="cls-2" d="M31.9,12.22h1.22v3.66h1.51V12.22h1.22v8.54H34.64V17H33.13v3.8H31.9Z"/><path class="cls-2" d="M40.6,12.22h1l1.91,8.54H42.31l-.36-1.83H40.28l-.36,1.83H38.7Zm.52,2.46h0l-.6,3.09h1.22Z"/><path class="cls-2" d="M10.56,125.26h1.22v8.54H10.56Z"/><path class="cls-2" d="M12.92,125.26H14.1l1.85,5.14h0v-5.14h1.22v8.54H16l-1.87-5.13h0v5.13H12.92Z"/><path class="cls-2" d="M20.48,125.26h1.18l1.85,5.14h0v-5.14h1.22v8.54H23.6l-1.87-5.13h0v5.13H20.48Z"/><path class="cls-2" d="M27,130.19l-1.68-4.93h1.29l1,3.39h0l1-3.39h1.3l-1.68,4.93v3.61H27Z"/><path class="cls-2" d="M34.4,131.89a2,2,0,0,1-1.94,2,1.85,1.85,0,0,1-2-2v-4.7a1.91,1.91,0,0,1,2-2,1.94,1.94,0,0,1,2,2v.48H33.18v-.41a.8.8,0,0,0-.76-.89c-.61,0-.76.42-.76,1v4.37c0,.49.19.88.74.88a.76.76,0,0,0,.77-.86v-.42H34.4Z"/><path class="cls-1" d="M0,24.69H8.57C14.9,24.69,18,28.4,18,35.62c0,4.29-1.2,7.42-4.6,9.31l5.75,17H13.49L8.52,46H5.33V61.91H0ZM5.33,41.31h3c3.71,0,4.29-2.09,4.29-5.8s-.63-5.8-4.55-5.8H5.33Z"/><path class="cls-1" d="M22,33.47a8.73,8.73,0,0,1,8.94-9.1,8.73,8.73,0,0,1,8.94,9.1V53.13a8.73,8.73,0,0,1-8.94,9.1A8.73,8.73,0,0,1,22,53.13ZM27.3,53.13a3.44,3.44,0,0,0,3.61,3.76,3.44,3.44,0,0,0,3.61-3.76V33.47a3.44,3.44,0,0,0-3.61-3.76,3.44,3.44,0,0,0-3.61,3.76Z"/><path class="cls-1" d="M61.5,53.6A8.6,8.6,0,0,1,53,62.23c-4.08,0-8.78-2-8.78-8.79V32.95a8.32,8.32,0,0,1,8.68-8.57c4.91,0,8.57,3.71,8.57,8.89v2.09H56.17V33.58c0-2.09-1.26-3.87-3.29-3.87-2.66,0-3.29,1.83-3.29,4.34v19c0,2.15.84,3.82,3.24,3.82,1.46,0,3.35-.84,3.35-3.76V51.3H61.5Z"/><path class="cls-1" d="M0,65.28H2.84L7.3,77.7h.06V65.28h3V85.9H7.53L3,73.51H3V85.9H0Z"/><path class="cls-1" d="M16.26,65.28h2.46L23.33,85.9h-3l-.87-4.43h-4l-.87,4.43h-3Zm1.25,5.94h-.06L16,78.69h3Z"/><path class="cls-1" d="M25.13,68.06H21.71V65.28H31.5v2.78H28.08V85.9h-3Z"/><path class="cls-1" d="M32.9,65.28h3V85.9h-3Z"/><path class="cls-1" d="M38.55,70.14a5,5,0,1,1,9.91,0V81a5,5,0,1,1-9.91,0ZM41.5,81a2,2,0,1,0,4,0V70.14a2,2,0,1,0-4,0Z"/><path class="cls-1" d="M51,65.28H53.8L58.26,77.7h.06V65.28h3V85.9H58.49L54,73.51h-.06V85.9H51Z"/><path class="cls-2" d="M0,88.71H12.75v4H4.28v8.77h7.38v4H4.28v8.76h8.47v4.28H0Z"/><path class="cls-2" d="M19.47,102.93,13.89,88.71h4.53l3.23,8.85,3.27-8.85h4.53l-5.71,14.22,6.17,15.65H25.39l-3.73-10.07L18,118.58H13.43Z"/><path class="cls-2" d="M31.86,88.71H44.61v4H36.13v8.77h7.38v4H36.13v8.76h8.47v4.28H31.86Z"/><path class="cls-2" d="M61,111.9a6.9,6.9,0,0,1-6.8,6.92c-3.27,0-7-1.6-7-7V95.34a6.67,6.67,0,0,1,7-6.88A6.79,6.79,0,0,1,61,95.59v1.68H56.7V95.84c0-1.68-1-3.1-2.64-3.1-2.14,0-2.64,1.47-2.64,3.48v15.27c0,1.72.67,3.06,2.6,3.06,1.17,0,2.68-.67,2.68-3v-1.47H61Z"/><rect class="cls-2" x="46.23" y="15.88" width="15.15" height="1.15"/><rect class="cls-2" y="15.88" width="15.15" height="1.15"/><rect class="cls-2" y="128.95" width="7.74" height="1.15"/><rect class="cls-2" x="53.23" y="128.95" width="7.74" height="1.15"/></g></g></svg>