<svg xmlns="http://www.w3.org/2000/svg" viewBox="0 0 114.72 48.16"><defs><style>.cls-1{fill:#fff;}.cls-2{fill:#96d600;}</style></defs><title>Text_Stage1</title><g id="Layer_2" data-name="Layer 2"><g id="Layer_2-2" data-name="Layer 2"><path class="cls-1" d="M3,.11H4.6l3,13.43H5.68l-.57-2.89H2.49l-.57,2.89H0ZM3.81,4h0L2.83,8.85H4.75Z"/><path class="cls-1" d="M18.28,4H16.36V3.55c0-.89-.38-1.62-1.36-1.62s-1.3.85-1.3,1.74.09,1.39,1.09,1.79L16.26,6c1.7.64,2,1.72,2,3.68,0,2.26-.83,3.94-3.32,3.94a3.17,3.17,0,0,1-3.28-3.19V9.75H13.6v.6A1.27,1.27,0,0,0,15,11.73c1.3,0,1.4-.77,1.4-2,0-1.43-.17-1.66-1.11-2l-1.38-.57c-1.66-.68-2.09-1.77-2.09-3.45,0-2,1.09-3.68,3.3-3.68a3.15,3.15,0,0,1,3.21,3Z"/><path class="cls-1" d="M19.78.11H21.7V13.54H19.78Z"/><path class="cls-1" d="M24.83,1.92H22.61V.11H29V1.92H26.76V13.54H24.83Z"/><path class="cls-1" d="M28.59,7.36h5.68V9.28H28.59Z"/><path class="cls-1" d="M36,.11h2.85a3.12,3.12,0,0,1,3.38,3.47V9.86c0,2.49-1.28,3.68-3.55,3.68H36Zm1.92,11.62h.89c1.08,0,1.49-.53,1.49-1.68V3.58c0-1.06-.36-1.66-1.49-1.66h-.89Z"/><path class="cls-1" d="M43.93,3.28a3.23,3.23,0,1,1,6.45,0v7.09a3.23,3.23,0,1,1-6.45,0Zm1.92,7.09a1.3,1.3,0,1,0,2.6,0V3.28a1.3,1.3,0,1,0-2.6,0Z"/><path class="cls-1" d="M59.83,13.54H58L56.55,4.83h0l-1.45,8.71H53.25L51.25.11h2l1,8.52h0L55.8.11h1.47l1.57,8.73h0L59.8.11h2Z"/><path class="cls-1" d="M63,.11h1.85l2.9,8.09h0V.11h1.92V13.54H67.88L64.93,5.47h0v8.07H63Z"/><path class="cls-1" d="M82.91,13.54H81.1L79.63,4.83h0l-1.45,8.71H76.33L74.33.11h2l1,8.52h0L78.88.11h1.47l1.57,8.73h0L82.88.11h2Z"/><path class="cls-1" d="M86.18.11h1.92V13.54H86.18Z"/><path class="cls-1" d="M91.24,1.92H89V.11h6.37V1.92H93.16V13.54H91.24Z"/><path class="cls-1" d="M96.24.11h1.92V5.87h2.38V.11h1.92V13.54h-1.92v-6H98.16v6H96.24Z"/><path class="cls-1" d="M109.92.11h1.6l3,13.43H112.6L112,10.66h-2.62l-.57,2.89h-1.92ZM110.73,4h0l-.94,4.87h1.92Z"/><path class="cls-2" d="M0,17.65H3.59c2.62,0,3.89,1.54,3.89,4.52,0,1.77-.5,3.07-1.9,3.85L8,33H5.63L3.57,26.47H2.25V33H0Zm2.21,6.88H3.51c1.54,0,1.77-.86,1.77-2.4S5,19.72,3.4,19.72H2.25Z"/><path class="cls-2" d="M9.14,21.28a3.61,3.61,0,0,1,3.7-3.76,3.61,3.61,0,0,1,3.7,3.76v8.14a3.61,3.61,0,0,1-3.7,3.76,3.61,3.61,0,0,1-3.7-3.76Zm2.21,8.14A1.42,1.42,0,0,0,12.84,31a1.42,1.42,0,0,0,1.49-1.56V21.28a1.42,1.42,0,0,0-1.49-1.56,1.42,1.42,0,0,0-1.49,1.56Z"/><path class="cls-2" d="M25.5,29.61A3.56,3.56,0,0,1,22,33.18a3.34,3.34,0,0,1-3.63-3.64V21.06A3.44,3.44,0,0,1,22,17.52a3.5,3.5,0,0,1,3.55,3.68v.86H23.29v-.73a1.45,1.45,0,0,0-1.36-1.6c-1.1,0-1.36.76-1.36,1.8v7.87c0,.89.35,1.58,1.34,1.58a1.36,1.36,0,0,0,1.38-1.56v-.76H25.5Z"/><path class="cls-2" d="M31.24,17.65h2.12l3.33,9.28h0V17.65h2.21V33H36.86l-3.38-9.26h0V33H31.24Z"/><path class="cls-2" d="M43.38,17.65h1.84L48.66,33H46.45l-.65-3.31h-3L42.15,33H39.94Zm.93,4.43h0l-1.08,5.58h2.21Z"/><path class="cls-2" d="M50,19.72H47.45V17.65h7.31v2.08H52.21V33H50Z"/><path class="cls-2" d="M55.81,17.65H58V33H55.81Z"/><path class="cls-2" d="M60,21.28a3.7,3.7,0,1,1,7.4,0v8.14a3.7,3.7,0,1,1-7.4,0Zm2.21,8.14a1.49,1.49,0,1,0,3,0V21.28a1.49,1.49,0,1,0-3,0Z"/><path class="cls-2" d="M69.29,17.65h2.12l3.33,9.28h0V17.65H77V33H74.92l-3.38-9.26h0V33H69.29Z"/><path class="cls-2" d="M83,17.65h6.58v2.08H85.22v4.52H89v2.08H85.22v4.52h4.37V33H83Z"/><path class="cls-2" d="M93.06,25l-2.88-7.33h2.34l1.67,4.56,1.69-4.56h2.34L95.27,25,98.45,33H96.11l-1.93-5.19L92.28,33H89.94Z"/><path class="cls-2" d="M99.45,17.65H106v2.08h-4.37v4.52h3.81v2.08h-3.81v4.52H106V33H99.45Z"/><path class="cls-2" d="M114.47,29.61a3.56,3.56,0,0,1-3.5,3.57,3.34,3.34,0,0,1-3.63-3.64V21.06a3.44,3.44,0,0,1,3.59-3.55,3.5,3.5,0,0,1,3.55,3.68v.86h-2.21v-.73a1.45,1.45,0,0,0-1.36-1.6c-1.1,0-1.36.76-1.36,1.8v7.87c0,.89.35,1.58,1.34,1.58a1.36,1.36,0,0,0,1.38-1.56v-.76h2.21Z"/><path class="cls-1" d="M32.31,37.36h1.53V48.07H32.31Z"/><path class="cls-1" d="M35.27,37.36h1.47l2.32,6.45h0V37.36h1.53V48.07H39.19l-2.35-6.44h0v6.44H35.27Z"/><path class="cls-1" d="M44.76,37.36h1.47l2.32,6.45h0V37.36h1.53V48.07H48.67l-2.35-6.44h0v6.44H44.76Z"/><path class="cls-1" d="M52.93,43.54l-2.11-6.18h1.62l1.23,4.26h0l1.23-4.26h1.63l-2.11,6.18v4.53H52.93Z"/><path class="cls-1" d="M62.22,45.68a2.48,2.48,0,0,1-2.44,2.48,2.32,2.32,0,0,1-2.53-2.53v-5.9a2.39,2.39,0,0,1,2.5-2.47,2.44,2.44,0,0,1,2.47,2.56v.6H60.68v-.51a1,1,0,0,0-.95-1.11c-.77,0-.95.53-.95,1.25v5.48c0,.62.24,1.1.93,1.1a1,1,0,0,0,1-1.08V45h1.53Z"/><rect class="cls-1" x="0.05" y="41.77" width="28.54" height="1.89"/><rect class="cls-1" x="86.18" y="41.77" width="28.54" height="1.89"/></g></g></svg>