<svg xmlns="http://www.w3.org/2000/svg" viewBox="0 0 122.72 8.68"><defs><style>.cls-1{fill:#96d600;}.cls-2{fill:#fff;}</style></defs><title>Text_Stage_3_728</title><g id="Layer_2" data-name="Layer 2"><g id="Layer_2-2" data-name="Layer 2"><path class="cls-1" d="M4.2,2.53H3V2.25c0-.56-.24-1-.86-1s-.83.54-.83,1.1.06.89.7,1.14l.94.37C4,4.25,4.2,4.93,4.2,6.18c0,1.44-.53,2.51-2.11,2.51A2,2,0,0,1,0,6.66V6.2H1.22v.38a.81.81,0,0,0,.86.88C2.91,7.46,3,7,3,6.19s-.11-1.06-.71-1.29l-.88-.36A2,2,0,0,1,.06,2.34,2.08,2.08,0,0,1,2.16,0a2,2,0,0,1,2,1.93Z"/><path class="cls-1" d="M9.07,6.69a2,2,0,1,1-4,0V.07H6.33v6.5c0,.6.32.89.76.89s.76-.29.76-.89V.07H9.07Z"/><path class="cls-1" d="M10.22.07H12a2,2,0,0,1,2.17,2.16v.31a1.56,1.56,0,0,1-.84,1.58,1.62,1.62,0,0,1,.84,1.68v.48a2,2,0,0,1-2.29,2.33H10.22Zm1.22,3.5H12c.82,0,1-.42,1-1.2S12.75,1.22,12,1.22h-.5Zm0,3.81H12c1,0,1.06-.6,1.06-1.44s-.16-1.3-1-1.3h-.54Z"/><path class="cls-1" d="M15.34.07h1.18l1.57,4.52h0L19.67.07h1.19V8.61H19.63V3.42h0L18.39,7.09h-.61l-1.2-3.67h0V8.61H15.34Z"/><path class="cls-1" d="M22,.07h1.22V8.61H22Z"/><path class="cls-1" d="M25.26,1.22H23.84V.07H27.9V1.22H26.48V8.61H25.26Z"/><path class="cls-1" d="M31.81,5,30.13.07h1.29l1,3.39h0l1-3.39h1.3L33,5V8.61H31.81Z"/><path class="cls-1" d="M35.26,2.09a2.05,2.05,0,1,1,4.1,0V6.6a2.05,2.05,0,1,1-4.1,0ZM36.48,6.6a.83.83,0,1,0,1.66,0V2.09a.83.83,0,1,0-1.66,0Z"/><path class="cls-1" d="M44.4,6.69a2,2,0,1,1-4,0V.07h1.22v6.5c0,.6.32.89.76.89s.76-.29.76-.89V.07H44.4Z"/><path class="cls-1" d="M45.55.07h2c1.45,0,2.16.85,2.16,2.51a2.18,2.18,0,0,1-1.06,2.13l1.32,3.9h-1.3L47.51,5h-.73V8.61H45.55Zm1.22,3.81h.7c.85,0,1-.48,1-1.33s-.14-1.33-1-1.33h-.64Z"/><path class="cls-1" d="M52.89.07h1.18l1.57,4.52h0L57.22.07h1.19V8.61H57.19V3.42h0L56,7.09h-.61l-1.2-3.67h0V8.61H52.89Z"/><path class="cls-1" d="M63.52,6.69a2,2,0,1,1-4,0V.07h1.22v6.5c0,.6.32.89.76.89s.76-.29.76-.89V.07h1.22Z"/><path class="cls-1" d="M68.64,2.53H67.41V2.25c0-.56-.24-1-.86-1s-.83.54-.83,1.1.06.89.7,1.14l.94.37c1.08.41,1.28,1.09,1.28,2.34,0,1.44-.53,2.51-2.11,2.51a2,2,0,0,1-2.09-2V6.2h1.22v.38a.81.81,0,0,0,.86.88c.83,0,.89-.49.89-1.27s-.11-1.06-.71-1.29l-.88-.36A2,2,0,0,1,64.5,2.34,2.08,2.08,0,0,1,66.6,0a2,2,0,0,1,2,1.93Z"/><path class="cls-1" d="M69.59.07h1.22V8.61H69.59Z"/><path class="cls-1" d="M75.88,6.7a2,2,0,0,1-1.94,2,1.85,1.85,0,0,1-2-2V2a1.91,1.91,0,0,1,2-2,1.94,1.94,0,0,1,2,2v.48H74.66V2.11a.8.8,0,0,0-.76-.89c-.61,0-.76.42-.76,1V6.58c0,.49.19.88.74.88a.76.76,0,0,0,.77-.86V6.18h1.22Z"/><path class="cls-2" d="M79.92,1.22H78.5V.07h4.05V1.22H81.14V8.61H79.92Z"/><path class="cls-2" d="M82.88,2.09a2.05,2.05,0,1,1,4.1,0V6.6a2.05,2.05,0,1,1-4.1,0ZM84.11,6.6a.83.83,0,1,0,1.66,0V2.09a.83.83,0,1,0-1.66,0Z"/><path class="cls-2" d="M94.18,6.7a2,2,0,0,1-1.94,2,1.85,1.85,0,0,1-2-2V2a1.91,1.91,0,0,1,2-2,1.94,1.94,0,0,1,2,2v.48H93V2.11a.8.8,0,0,0-.76-.89c-.61,0-.76.42-.76,1V6.58c0,.49.19.88.74.88A.76.76,0,0,0,93,6.6V6.18h1.22Z"/><path class="cls-2" d="M95.11,2.09a2.05,2.05,0,1,1,4.1,0V6.6a2.05,2.05,0,1,1-4.1,0ZM96.33,6.6A.83.83,0,1,0,98,6.6V2.09a.83.83,0,1,0-1.66,0Z"/><path class="cls-2" d="M100.29.07h1.18L103,4.59h0L104.62.07h1.19V8.61h-1.22V3.42h0l-1.21,3.67h-.61l-1.2-3.67h0V8.61h-1.22Z"/><path class="cls-2" d="M107,.07h3.65V1.22h-2.42V3.73h2.11V4.88h-2.11V7.39h2.42V8.61H107Z"/><path class="cls-2" d="M117.6,6.69a2,2,0,1,1-4,0V.07h1.22v6.5c0,.6.32.89.76.89s.76-.29.76-.89V.07h1.22Z"/><path class="cls-2" d="M118.75.07h1.83a2,2,0,0,1,1.58.6,2.62,2.62,0,0,1,.55,2,3.07,3.07,0,0,1-.35,1.71,1.89,1.89,0,0,1-1.77.89H120V8.61h-1.22ZM120,4.13h.59c1,0,1-.59,1-1.44s0-1.46-1-1.46H120Z"/></g></g></svg>