<svg xmlns="http://www.w3.org/2000/svg" viewBox="0 0 114.07 53.69"><defs><style>.cls-1{fill:#fff;}.cls-2{fill:#96d600;}</style></defs><title>Text_Stage2</title><g id="Layer_2" data-name="Layer 2"><g id="Layer_2-2" data-name="Layer 2"><rect class="cls-1" x="0.02" y="46.72" width="18.25" height="1.55"/><rect class="cls-1" x="95.82" y="46.72" width="18.25" height="1.55"/><path class="cls-2" d="M0,11.41H5.32c4.71,0,6.47,3.11,6.47,6.43v.93c0,2.71-.89,3.71-2.5,4.71,1.71.82,2.5,2.36,2.5,5v1.43c0,4.43-2.11,6.93-6.82,6.93H0ZM3.64,21.84H5.29c2.43,0,3.07-1.25,3.07-3.57s-.82-3.43-3.22-3.43H3.64Zm0,11.36H5.21c2.93,0,3.14-1.79,3.14-4.28S7.89,25,5.25,25H3.64Z"/><path class="cls-2" d="M15.33,11.41H19V36.84H15.33Z"/><path class="cls-2" d="M22.3,17.41a6,6,0,0,1,6.11-6.22,6,6,0,0,1,6.11,6.22v1.29H30.87V17.41a2.47,2.47,0,1,0-4.93,0V30.84a2.47,2.47,0,1,0,4.93,0V26H28V22.84h6.54v8a6,6,0,0,1-6.11,6.22,6,6,0,0,1-6.11-6.22Z"/><path class="cls-2" d="M44.39,11.41H48V23h.07l5.32-11.61h3.64l-5,10.18L58,36.84H54.14L50,25.55l-2,3.68v7.61H44.39Z"/><path class="cls-2" d="M59.4,33.19H63v3.64H59.4Z"/><path class="cls-2" d="M66.26,11.41h5.86c4.32,0,6.43,2.54,6.43,7.47,0,2.93-.82,5.07-3.14,6.36l3.93,11.61H75.47L72.08,26H69.9V36.84H66.26ZM69.9,22.76H72c2.54,0,2.93-1.43,2.93-4s-.43-4-3.11-4H69.9Z"/><path class="cls-2" d="M81.27,33.19h3.64v3.64H81.27Z"/><path class="cls-2" d="M88.23,11.41h3.64V36.84H88.23Z"/><path class="cls-2" d="M95.2,33.19h3.64v3.64H95.2Z"/><path class="cls-2" d="M104.46,14.84h-4.22V11.41h12.07v3.43H108.1v22h-3.64Z"/><path class="cls-2" d="M110.43,33.19h3.64v3.64h-3.64Z"/><path class="cls-1" d="M29.21,41.31H31V53.69H29.21Z"/><path class="cls-1" d="M32.63,41.31h1.7L37,48.77h0V41.31h1.77V53.69H37.16l-2.71-7.44h0v7.44H32.63Z"/><path class="cls-1" d="M45.63,41.31h1.48l2.77,12.38H48.1L47.58,51H45.16l-.52,2.66H42.87Zm.75,3.56h0l-.87,4.49h1.77Z"/><path class="cls-1" d="M51,43H48.9V41.31h5.88V43H52.73V53.69H51Z"/><path class="cls-1" d="M55.57,41.31h1.77V51.92h3.51v1.77H55.57Z"/><path class="cls-1" d="M1.93.07h1L4.73,8.24H3.56L3.22,6.49H1.62L1.28,8.24H.11Zm.49,2.35h0l-.57,3H3Z"/><path class="cls-1" d="M5.27.07H6.39L8.16,5h0V.07H9.35V8.24H8.25L6.46,3.33h0V8.24H5.27Z"/><path class="cls-1" d="M10.41.07h1.73A1.9,1.9,0,0,1,14.2,2.18V6A2,2,0,0,1,12,8.24H10.41Zm1.17,7.07h.54c.65,0,.91-.32.91-1V2.18c0-.64-.22-1-.91-1h-.54Z"/><path class="cls-1" d="M18.74.07h1l1.83,8.18H20.37L20,6.49h-1.6l-.34,1.76H16.92Zm.49,2.35h0l-.57,3h1.17Z"/><path class="cls-1" d="M28,2.42H26.87V2.16c0-.54-.23-1-.83-1s-.79.52-.79,1.06.06.85.67,1.09l.9.36c1,.39,1.23,1,1.23,2.24,0,1.38-.51,2.4-2,2.4a1.93,1.93,0,0,1-2-1.94V5.94H25.2V6.3a.77.77,0,0,0,.83.84c.79,0,.85-.47.85-1.22s-.1-1-.68-1.24l-.84-.35a1.93,1.93,0,0,1-1.27-2.1,2,2,0,0,1,2-2.24,1.92,1.92,0,0,1,2,1.85Z"/><path class="cls-1" d="M29.69,1.17H28.34V.07h3.88v1.1H30.86V8.24H29.69Z"/><path class="cls-1" d="M36.52,6.41a1.89,1.89,0,1,1-3.79,0V.07h1.17V6.29c0,.57.31.85.72.85s.72-.28.72-.85V.07h1.17Z"/><path class="cls-1" d="M37.63.07h1.73a1.9,1.9,0,0,1,2.06,2.11V6a2,2,0,0,1-2.16,2.24H37.63ZM38.8,7.14h.54c.65,0,.91-.32.91-1V2.18c0-.64-.22-1-.91-1H38.8Z"/><path class="cls-1" d="M42.56.07h1.17V8.24H42.56Z"/><path class="cls-1" d="M44.8,2a2,2,0,1,1,3.93,0V6.32a2,2,0,1,1-3.93,0ZM46,6.32a.79.79,0,1,0,1.58,0V2A.79.79,0,1,0,46,2Z"/><path class="cls-1" d="M51.9.07h3.49v1.1H53.07v2.4h2v1.1h-2v2.4h2.32V8.24H51.9Z"/><path class="cls-1" d="M57.23,4,55.7.07h1.24l.88,2.42.9-2.42H60L58.4,4l1.69,4.28H58.85l-1-2.76-1,2.76H55.58Z"/><path class="cls-1" d="M60.62.07h1.76a1.9,1.9,0,0,1,1.52.57,2.51,2.51,0,0,1,.53,1.92,2.94,2.94,0,0,1-.33,1.64,1.81,1.81,0,0,1-1.7.85h-.6V8.24H60.62ZM61.79,4h.56c1,0,1-.56,1-1.38s0-1.4-.92-1.4h-.61Z"/><path class="cls-1" d="M65.29.07h3.49v1.1H66.47v2.4h2v1.1h-2v2.4h2.32V8.24H65.29Z"/><path class="cls-1" d="M69.55.07h1.88c1.39,0,2.07.82,2.07,2.4a2.08,2.08,0,0,1-1,2l1.26,3.73H72.51L71.42,4.75h-.7V8.24H69.55Zm1.17,3.65h.67c.82,0,.94-.46.94-1.27s-.14-1.27-1-1.27h-.61Z"/><path class="cls-1" d="M74.47.07h1.17V8.24H74.47Z"/><path class="cls-1" d="M76.78.07h3.49v1.1H78v2.4h2v1.1H78v2.4h2.32V8.24H76.78Z"/><path class="cls-1" d="M81,.07h1.13L83.88,5h0V.07h1.17V8.24H84L82.18,3.33h0V8.24H81Z"/><path class="cls-1" d="M89.86,6.42A1.89,1.89,0,0,1,88,8.31a1.77,1.77,0,0,1-1.93-1.93V1.88A1.83,1.83,0,0,1,88,0a1.86,1.86,0,0,1,1.88,2v.46H88.68V2A.77.77,0,0,0,88,1.17c-.59,0-.72.4-.72,1V6.3c0,.47.18.84.71.84a.72.72,0,0,0,.73-.83v-.4h1.17Z"/><path class="cls-1" d="M90.81.07H94.3v1.1H92v2.4h2v1.1H92v2.4H94.3V8.24H90.81Z"/><path class="cls-1" d="M102.06,8.24H101l-.9-5.31h0l-.88,5.31H98L96.83.07h1.24l.59,5.19h0L99.6.07h.9l1,5.32h0L102,.07h1.24Z"/><path class="cls-1" d="M104,.07h1.17V8.24H104Z"/><path class="cls-1" d="M107.13,1.17h-1.36V.07h3.88v1.1H108.3V8.24h-1.17Z"/><path class="cls-1" d="M110.17.07h1.17v3.5h1.45V.07H114V8.24h-1.17V4.6h-1.45V8.24h-1.17Z"/></g></g></svg>