<svg xmlns="http://www.w3.org/2000/svg" viewBox="0 0 89.78 34.68"><defs><style>.cls-1{fill:#fff;}.cls-2{fill:#96d600;}</style></defs><title>Text_Stage_1</title><g id="Layer_2" data-name="Layer 2"><g id="Layer_2-2" data-name="Layer 2"><path class="cls-1" d="M5.46,8.61H4.31L3.37,3.07h0L2.42,8.61H1.27L0,.07H1.3l.61,5.42h0l1-5.42h.94l1,5.55h0L5.43.07h1.3Z"/><path class="cls-1" d="M7.54.07H8.76V8.61H7.54Z"/><path class="cls-1" d="M9.9.07h1.18l1.85,5.14h0V.07h1.22V8.61H13L11.15,3.48h0V8.61H9.9Z"/><path class="cls-1" d="M18.86.07h1l1.91,8.54H20.57l-.36-1.83H18.54l-.36,1.83H17Zm.52,2.46h0l-.6,3.09H20Z"/><path class="cls-1" d="M28.58,2.53H27.36V2.25c0-.56-.24-1-.86-1s-.83.54-.83,1.1.06.89.7,1.14l.94.37c1.08.41,1.28,1.09,1.28,2.34,0,1.44-.53,2.51-2.11,2.51a2,2,0,0,1-2.09-2V6.2h1.22v.38a.81.81,0,0,0,.86.88c.83,0,.89-.49.89-1.27s-.11-1.06-.71-1.29l-.88-.36a2,2,0,0,1-1.33-2.19A2.08,2.08,0,0,1,26.54,0a2,2,0,0,1,2,1.93Z"/><path class="cls-1" d="M29.53.07h1.22V8.61H29.53Z"/><path class="cls-1" d="M32.75,1.22H31.33V.07h4.05V1.22H34V8.61H32.75Z"/><path class="cls-1" d="M35.13,4.68h3.61V5.9H35.13Z"/><path class="cls-1" d="M39.85.07h1.81a2,2,0,0,1,2.15,2.21v4a2,2,0,0,1-2.25,2.34h-1.7Zm1.22,7.39h.56c.68,0,.95-.34.95-1.07V2.28c0-.67-.23-1.06-.95-1.06h-.56Z"/><path class="cls-1" d="M44.89,2.09a2.05,2.05,0,1,1,4.1,0V6.6a2.05,2.05,0,1,1-4.1,0ZM46.11,6.6a.83.83,0,1,0,1.66,0V2.09a.83.83,0,1,0-1.66,0Z"/><path class="cls-1" d="M55,8.61H53.85l-.94-5.54h0L52,8.61H50.82L49.55.07h1.3l.61,5.42h0l1-5.42h.94l1,5.55h0L55,.07h1.3Z"/><path class="cls-1" d="M57,.07h1.18L60,5.22h0V.07h1.22V8.61H60.12L58.25,3.48h0V8.61H57Z"/><path class="cls-1" d="M69.68,8.61H68.53l-.94-5.54h0l-.92,5.54H65.49L64.22.07h1.3l.61,5.42h0l1-5.42H68l1,5.55h0L69.66.07H71Z"/><path class="cls-1" d="M71.76.07H73V8.61H71.76Z"/><path class="cls-1" d="M75,1.22H73.56V.07h4.05V1.22H76.2V8.61H75Z"/><path class="cls-1" d="M78.15.07h1.22V3.73h1.51V.07h1.22V8.61H80.89V4.81H79.38v3.8H78.15Z"/><path class="cls-1" d="M86.85.07h1l1.91,8.54H88.56L88.2,6.78H86.53l-.36,1.83H84.95Zm.52,2.46h0l-.6,3.09H88Z"/><path class="cls-2" d="M.38,10.23H3.14c2,0,3,1.19,3,3.52a3.05,3.05,0,0,1-1.48,3l1.85,5.47H4.72l-1.6-5.12h-1v5.12H.38ZM2.1,15.58h1c1.19,0,1.38-.67,1.38-1.87S4.25,11.84,3,11.84H2.1Z"/><path class="cls-2" d="M7.45,13.05a2.81,2.81,0,0,1,2.88-2.93,2.81,2.81,0,0,1,2.88,2.93v6.33a2.81,2.81,0,0,1-2.88,2.93,2.81,2.81,0,0,1-2.88-2.93Zm1.72,6.33a1.11,1.11,0,0,0,1.16,1.21,1.11,1.11,0,0,0,1.16-1.21V13.05a1.11,1.11,0,0,0-1.16-1.21,1.11,1.11,0,0,0-1.16,1.21Z"/><path class="cls-2" d="M20.18,19.53a2.77,2.77,0,0,1-2.73,2.78,2.6,2.6,0,0,1-2.83-2.83v-6.6a2.68,2.68,0,0,1,2.79-2.76A2.72,2.72,0,0,1,20.18,13v.67H18.46v-.57a1.13,1.13,0,0,0-1.06-1.25c-.86,0-1.06.59-1.06,1.4v6.12c0,.69.27,1.23,1,1.23a1.06,1.06,0,0,0,1.08-1.21v-.59h1.72Z"/><path class="cls-2" d="M24.64,10.23h1.65l2.59,7.22h0V10.23h1.72v12H29L26.39,15h0v7.2H24.64Z"/><path class="cls-2" d="M34.09,10.23h1.43l2.68,12H36.47L36,19.63H33.63l-.5,2.57H31.41Zm.72,3.45h0L33.93,18h1.72Z"/><path class="cls-2" d="M39.24,11.84h-2V10.23h5.69v1.62H41V22.21H39.24Z"/><path class="cls-2" d="M43.75,10.23h1.72v12H43.75Z"/><path class="cls-2" d="M47,13.05a2.88,2.88,0,1,1,5.75,0v6.33a2.88,2.88,0,1,1-5.75,0Zm1.72,6.33a1.16,1.16,0,1,0,2.32,0V13.05a1.16,1.16,0,1,0-2.32,0Z"/><path class="cls-2" d="M54.24,10.23h1.65l2.59,7.22h0V10.23h1.72v12H58.61L56,15h0v7.2H54.24Z"/><path class="cls-2" d="M64.91,10.23H70v1.62h-3.4v3.52h3V17h-3v3.52H70v1.72H64.91Z"/><path class="cls-2" d="M72.72,15.93l-2.24-5.7H72.3l1.3,3.55,1.31-3.55h1.82l-2.29,5.7,2.47,6.28H75.09l-1.5-4-1.48,4H70.3Z"/><path class="cls-2" d="M77.69,10.23H82.8v1.62H79.4v3.52h3V17h-3v3.52h3.4v1.72H77.69Z"/><path class="cls-2" d="M89.37,19.53a2.77,2.77,0,0,1-2.73,2.78,2.6,2.6,0,0,1-2.83-2.83v-6.6a2.68,2.68,0,0,1,2.79-2.76A2.72,2.72,0,0,1,89.37,13v.67H87.65v-.57a1.13,1.13,0,0,0-1.06-1.25c-.86,0-1.06.59-1.06,1.4v6.12c0,.69.27,1.23,1,1.23a1.06,1.06,0,0,0,1.08-1.21v-.59h1.72Z"/><path class="cls-1" d="M25,26.07h1.22v8.54H25Z"/><path class="cls-1" d="M27.38,26.07h1.18l1.85,5.14h0V26.07h1.22v8.54H30.5l-1.87-5.13h0v5.13H27.38Z"/><path class="cls-1" d="M34.94,26.07h1.18L38,31.21h0V26.07h1.22v8.54H38.06l-1.87-5.13h0v5.13H34.94Z"/><path class="cls-1" d="M41.46,31l-1.68-4.93h1.29l1,3.39h0l1-3.39h1.3L42.68,31v3.61H41.46Z"/><path class="cls-1" d="M48.86,32.7a2,2,0,0,1-1.94,2,1.85,1.85,0,0,1-2-2V28a1.91,1.91,0,0,1,2-2,1.94,1.94,0,0,1,2,2v.48H47.64v-.41a.8.8,0,0,0-.76-.89c-.61,0-.76.42-.76,1v4.37c0,.49.19.88.74.88a.76.76,0,0,0,.77-.86v-.42h1.22Z"/><rect class="cls-1" x="9.67" y="20.51" width="1.22" height="19.79" transform="translate(40.69 20.13) rotate(90)"/><rect class="cls-1" x="78.86" y="20.51" width="1.22" height="19.79" transform="translate(109.88 -49.06) rotate(90)"/></g></g></svg>